<?xml version="1.0" encoding="UTF-8" standalone="no"?>
<!DOCTYPE svg PUBLIC "-//W3C//DTD SVG 1.1//EN" "http://www.w3.org/Graphics/SVG/1.1/DTD/svg11.dtd">
<svg version="1.1" xmlns="http://www.w3.org/2000/svg" xmlns:xlink="http://www.w3.org/1999/xlink" preserveAspectRatio="xMidYMid meet" viewBox="0 0 640 640" width="640" height="640"><defs><path d="M328.59 625.14C243.02 625.14 172.05 597.4 115.69 541.93C112.08 538.38 110.88 533.04 112.64 528.29C158.33 404.32 229.75 340.94 326.88 338.15C424.96 335.33 497.82 394.61 545.46 516C546.67 519.09 546.08 522.61 543.92 525.14C487.09 591.8 415.31 625.14 328.59 625.14Z" id="d1gulxHYB7"></path><path d="M628.22 316.34C628.22 486.77 491.95 625.14 324.11 625.14C156.27 625.14 20 486.77 20 316.34C20 145.9 156.27 7.53 324.11 7.53C491.95 7.53 628.22 145.9 628.22 316.34Z" id="dSkL2Nk72"></path><path d="M343.58 403.7C351.66 403.7 358.21 410.25 358.21 418.32C358.21 427.1 358.21 428.09 358.21 434.19C358.21 449.66 345.67 462.19 330.2 462.19C324.11 462.19 332.76 462.19 326.4 462.19C311.66 462.19 299.71 450.24 299.71 435.51C299.71 429.14 299.71 427.1 299.71 418.32C299.71 410.25 306.26 403.7 314.34 403.7C323.11 403.7 334.81 403.7 343.58 403.7Z" id="b7vGXwBwq"></path><path d="M255.96 612.74C265.39 589.62 312.22 416.34 328.83 416.16C345.44 415.99 386.8 550.58 407.33 609.32C385.5 634.49 293.02 639.28 255.96 612.74Z" id="b2pK1DZ5Sk"></path><path d="M485.58 240.31C485.58 331.7 411.39 405.89 320 405.89C228.61 405.89 154.42 331.7 154.42 240.31C154.42 148.92 228.61 74.73 320 74.73C411.39 74.73 485.58 148.92 485.58 240.31Z" id="a1e33Dp6K"></path></defs><g><g><g><use xlink:href="#d1gulxHYB7" opacity="1" fill="#ffffff" fill-opacity="1"></use><g><use xlink:href="#d1gulxHYB7" opacity="1" fill-opacity="0" stroke="#000000" stroke-width="15" stroke-opacity="1"></use></g></g><g><g><use xlink:href="#dSkL2Nk72" opacity="1" fill-opacity="0" stroke="#000000" stroke-width="20" stroke-opacity="1"></use></g></g><g><use xlink:href="#b7vGXwBwq" opacity="1" fill="#000000" fill-opacity="1"></use></g><g><use xlink:href="#b2pK1DZ5Sk" opacity="1" fill="#000000" fill-opacity="1"></use></g><g><use xlink:href="#a1e33Dp6K" opacity="1" fill="#ffffff" fill-opacity="1"></use><g><use xlink:href="#a1e33Dp6K" opacity="1" fill-opacity="0" stroke="#000000" stroke-width="15" stroke-opacity="1"></use></g></g></g></g></svg>