<?xml version="1.0" encoding="UTF-8" standalone="no"?>
<!DOCTYPE svg PUBLIC "-//W3C//DTD SVG 1.1//EN" "http://www.w3.org/Graphics/SVG/1.1/DTD/svg11.dtd">
<svg version="1.1" xmlns="http://www.w3.org/2000/svg" xmlns:xlink="http://www.w3.org/1999/xlink" preserveAspectRatio="xMidYMid meet" viewBox="0 0 640 640" width="640" height="640"><defs><path d="M229.01 399.27C234.54 399.27 239.01 403.75 239.01 409.27C239.01 424.95 239.01 461.96 239.01 477.63C239.01 483.15 234.54 487.63 229.01 487.63C219.1 487.63 199.34 487.63 189.42 487.63C183.9 487.63 179.42 483.15 179.42 477.63C179.42 461.96 179.42 424.95 179.42 409.27C179.42 403.75 183.9 399.27 189.42 399.27C199.34 399.27 219.1 399.27 229.01 399.27Z" id="bMyqwfzR"></path><path d="M175.16 393.11C178.88 397.19 178.6 403.51 174.53 407.24C162.96 417.81 135.64 442.79 124.08 453.37C120 457.09 113.68 456.81 109.95 452.73C103.26 445.41 89.93 430.84 83.24 423.52C79.51 419.44 79.79 413.12 83.87 409.39C95.43 398.81 122.75 373.84 134.32 363.26C138.39 359.54 144.72 359.82 148.44 363.89C155.14 371.21 168.47 385.79 175.16 393.11Z" id="d9o2jugtC"></path><path d="M142.43 350.76C142.36 356.28 137.83 360.71 132.31 360.64C116.64 360.46 79.63 360.02 63.96 359.83C58.44 359.77 54.01 355.24 54.08 349.72C54.2 339.8 54.43 320.05 54.55 310.13C54.61 304.61 59.14 300.18 64.66 300.25C80.33 300.43 117.35 300.87 133.02 301.06C138.54 301.12 142.96 305.65 142.9 311.17C142.78 321.09 142.55 340.84 142.43 350.76Z" id="d1PSvhH7Me"></path><path d="M455.26 148.41C458.83 152.63 458.31 158.94 454.09 162.51C439.63 174.76 403.87 205.07 389.4 217.33C385.19 220.9 378.88 220.38 375.31 216.17C367.92 207.45 352.23 188.93 344.84 180.22C341.27 176 341.79 169.69 346.01 166.12C360.47 153.87 396.23 123.56 410.7 111.3C414.91 107.73 421.22 108.25 424.79 112.46C432.18 121.18 447.87 139.7 455.26 148.41Z" id="bFdh2YKdr"></path><path d="M399.35 277.91C410.75 268.06 412.24 250.93 402.71 239.27C384.08 216.48 344.98 168.63 326.26 145.73C317.17 134.6 300.62 133.33 289.94 142.94C263.87 166.4 215.83 209.61 192.39 230.69C170.65 250.25 152.28 273.25 138 298.77C123.57 324.57 126.88 351.44 147.92 379.4C168.81 407.16 192.45 417.35 218.83 409.97C245.66 402.47 270.49 389.14 291.57 370.95C317.23 348.8 371.39 302.04 399.35 277.91Z" id="eqYFYOCRj"></path><path d="M409.19 76.5C416.54 71.47 426.53 72.96 432.1 79.91C445.5 96.65 474.89 133.36 488.05 149.8C494.12 157.38 492.75 168.46 485.03 174.34C481.76 176.83 484.23 174.95 480.51 177.78C473.91 182.79 464.53 181.66 459.32 175.22C445.46 158.1 415.35 120.89 402.02 104.42C395.56 96.44 397.28 84.66 405.75 78.86C409.04 76.61 405.36 79.13 409.19 76.5Z" id="ddyl8nFhD"></path><path d="M444.96 360.64C444.96 403.42 410.24 438.14 367.46 438.14C324.69 438.14 289.96 403.42 289.96 360.64C289.96 317.87 324.69 283.14 367.46 283.14C410.24 283.14 444.96 317.87 444.96 360.64Z" id="a6AQCtke7I"></path><path d="M428 527.29C445.36 503.25 454.56 464.78 447.41 423.91C440.26 383.04 399.6 336.78 371.82 335.85C344.03 334.91 329.76 361.41 339.13 381.44C348.49 401.47 361.71 408.1 371.82 433.53C376.55 453.15 370.77 479.86 354.45 513.66C402.8 522.75 427.32 527.29 428 527.29Z" id="blRBItRsn"></path><path d="M453.3 516.19C464.35 516.19 473.3 525.15 473.3 536.19C473.3 555.75 473.3 594.44 473.3 614C473.3 625.05 464.35 634 453.3 634C395.98 634 244.02 634 186.7 634C175.65 634 166.7 625.05 166.7 614C166.7 594.44 166.7 555.75 166.7 536.19C166.7 525.15 175.65 516.19 186.7 516.19C244.02 516.19 395.98 516.19 453.3 516.19Z" id="a5qzvcQ4RK"></path><path d="M475.04 499.93C478.94 499.93 482.11 503.09 482.11 507C482.11 514.49 482.11 529.9 482.11 537.39C482.11 541.29 478.94 544.45 475.04 544.45C394.24 544.45 158.9 544.45 78.09 544.45C74.19 544.45 71.03 541.29 71.03 537.39C71.03 529.9 71.03 514.49 71.03 507C71.03 503.09 74.19 499.93 78.09 499.93C158.9 499.93 394.24 499.93 475.04 499.93Z" id="fOcXg0fDW"></path></defs><g><g><g><use xlink:href="#bMyqwfzR" opacity="1" fill="#ffffff" fill-opacity="1"></use><g><use xlink:href="#bMyqwfzR" opacity="1" fill-opacity="0" stroke="#031b05" stroke-width="10" stroke-opacity="1"></use></g></g><g><use xlink:href="#d9o2jugtC" opacity="1" fill="#ffffff" fill-opacity="1"></use><g><use xlink:href="#d9o2jugtC" opacity="1" fill-opacity="0" stroke="#031b05" stroke-width="10" stroke-opacity="1"></use></g></g><g><use xlink:href="#d1PSvhH7Me" opacity="1" fill="#ffffff" fill-opacity="1"></use><g><use xlink:href="#d1PSvhH7Me" opacity="1" fill-opacity="0" stroke="#031b05" stroke-width="10" stroke-opacity="1"></use></g></g><g><use xlink:href="#bFdh2YKdr" opacity="1" fill="#ffffff" fill-opacity="1"></use><g><use xlink:href="#bFdh2YKdr" opacity="1" fill-opacity="0" stroke="#031b05" stroke-width="10" stroke-opacity="1"></use></g></g><g><use xlink:href="#eqYFYOCRj" opacity="1" fill="#ffffff" fill-opacity="1"></use><g><use xlink:href="#eqYFYOCRj" opacity="1" fill-opacity="0" stroke="#031b05" stroke-width="10" stroke-opacity="1"></use></g></g><g><use xlink:href="#ddyl8nFhD" opacity="1" fill="#ffffff" fill-opacity="1"></use><g><use xlink:href="#ddyl8nFhD" opacity="1" fill-opacity="0" stroke="#031b05" stroke-width="10" stroke-opacity="1"></use></g></g><g><use xlink:href="#a6AQCtke7I" opacity="1" fill="#ffffff" fill-opacity="1"></use><g><use xlink:href="#a6AQCtke7I" opacity="1" fill-opacity="0" stroke="#000000" stroke-width="10" stroke-opacity="1"></use></g></g><g><use xlink:href="#blRBItRsn" opacity="1" fill="#ffffff" fill-opacity="1"></use><g><use xlink:href="#blRBItRsn" opacity="1" fill-opacity="0" stroke="#031b05" stroke-width="10" stroke-opacity="1"></use></g></g><g><use xlink:href="#a5qzvcQ4RK" opacity="1" fill="#ffffff" fill-opacity="1"></use><g><use xlink:href="#a5qzvcQ4RK" opacity="1" fill-opacity="0" stroke="#031b05" stroke-width="10" stroke-opacity="1"></use></g></g><g><use xlink:href="#fOcXg0fDW" opacity="1" fill="#ffffff" fill-opacity="1"></use><g><use xlink:href="#fOcXg0fDW" opacity="1" fill-opacity="0" stroke="#031b05" stroke-width="10" stroke-opacity="1"></use></g></g></g></g></svg>