<?xml version="1.0" encoding="UTF-8" standalone="no"?>
<!DOCTYPE svg PUBLIC "-//W3C//DTD SVG 1.1//EN" "http://www.w3.org/Graphics/SVG/1.1/DTD/svg11.dtd">
<svg version="1.1" xmlns="http://www.w3.org/2000/svg" xmlns:xlink="http://www.w3.org/1999/xlink" preserveAspectRatio="xMidYMid meet" viewBox="0 0 640 640" width="640" height="640"><defs><path d="M349.56 9.22C376.55 9.22 398.42 31.1 398.42 58.09C398.42 73.11 398.42 103.56 398.42 127.14C398.42 130.48 395.71 133.19 392.37 133.19C344.4 133.19 206.56 133.19 158.59 133.19C155.24 133.19 152.53 130.48 152.53 127.14C152.53 103.56 152.53 70.78 152.53 55.18C152.53 29.8 173.11 9.22 198.49 9.22C238.48 9.22 310.15 9.22 349.56 9.22Z" id="b2jqnBMC18"></path><path d="M520.51 83.54C534.79 83.54 546.37 95.11 546.37 109.39C546.37 173.05 546.37 351.58 546.37 418.59C546.37 423.6 542.3 427.67 537.28 427.67C431.57 427.67 145.97 427.67 45.87 427.67C25.34 427.67 8.7 411.03 8.7 390.5C8.7 329.11 8.7 170.22 8.7 105.86C8.7 93.53 18.69 83.54 31.02 83.54C134.09 83.54 418.15 83.54 520.51 83.54Z" id="iaRB82Mkp"></path><path d="M604.23 343.77C606.31 483.6 607.61 570.99 608.13 605.94C608.25 613.94 601.8 620.48 593.81 620.48C533.15 620.48 365.72 620.48 305.06 620.48C297.04 620.48 290.53 613.97 290.53 605.95C290.53 542.36 290.53 366.91 290.53 303.51C290.53 294.95 297.47 288.01 306.03 288.01C336.2 288.01 411.63 288.01 532.32 288.01L604.23 343.77Z" id="e30Wupco5"></path><path d="M599.11 343.77L539.52 360.21L529.93 288.01" id="md0x8yXEf"></path><path d="M546.37 184.52L8.7 184.52" id="auM4pako6"></path><path d="M333 156.1C338.49 156.1 342.95 160.55 342.95 166.04C342.95 175.42 342.95 193.62 342.95 203C342.95 208.49 338.49 212.95 333 212.95C308.82 212.95 246.25 212.95 222.07 212.95C216.58 212.95 212.12 208.49 212.12 203C212.12 193.62 212.12 175.42 212.12 166.04C212.12 160.55 216.58 156.1 222.07 156.1C246.25 156.1 308.82 156.1 333 156.1Z" id="d21503XIh3"></path><path d="" id="g2LcN8vEoa"></path><path d="M440.89 324.11L320 324.11" id="baTEoDD2vT"></path><path d="M558.7 368.27L398.42 368.27" id="l6RCwG4vj"></path><path d="M380.45 337.97C360.81 369.46 348.54 389.13 343.63 397C342.31 399.12 339.21 399.07 337.96 396.91C336.32 394.08 332.22 386.99 325.65 375.65" id="dc71tBwO8"></path><path d="M523.08 390.34L398.42 390.34" id="a1NpZr7ZH"></path><path d="M361.03 360.21C366.55 360.21 371.03 364.68 371.03 370.21C371.03 380.26 371.03 400.42 371.03 410.48C371.03 416 366.55 420.48 361.03 420.48C350.97 420.48 330.81 420.48 320.75 420.48C315.23 420.48 310.75 416 310.75 410.48C310.75 400.42 310.75 380.26 310.75 370.21C310.75 364.68 315.23 360.21 320.75 360.21C330.81 360.21 350.97 360.21 361.03 360.21Z" id="b1rShrCVf2"></path><path d="M549.11 411.58L398.42 411.58" id="a2cs1XdF53"></path><path d="M558.7 464.74L398.42 464.74" id="c3nrFRKfc"></path><path d="M549.11 505.96L398.42 505.96" id="dFehelPjq"></path><path d="M378.39 439.66C358.76 471.14 346.48 490.82 341.58 498.69C340.26 500.8 337.16 500.75 335.91 498.6C334.27 495.76 330.16 488.67 323.6 477.33" id="a5pnUqkS1"></path><path d="M361.03 454.25C366.55 454.25 371.03 458.72 371.03 464.25C371.03 474.3 371.03 494.47 371.03 504.52C371.03 510.04 366.55 514.52 361.03 514.52C350.97 514.52 330.81 514.52 320.75 514.52C315.23 514.52 310.75 510.04 310.75 504.52C310.75 494.47 310.75 474.3 310.75 464.25C310.75 458.72 315.23 454.25 320.75 454.25C330.81 454.25 350.97 454.25 361.03 454.25Z" id="d2BUNuaGR"></path><path d="M523.08 486.27L398.42 486.27" id="anFgrjzCd"></path><path d="M361.03 544.9C366.55 544.9 371.03 549.38 371.03 554.9C371.03 564.96 371.03 585.12 371.03 595.18C371.03 600.7 366.55 605.18 361.03 605.18C350.97 605.18 330.81 605.18 320.75 605.18C315.23 605.18 310.75 600.7 310.75 595.18C310.75 585.12 310.75 564.96 310.75 554.9C310.75 549.38 315.23 544.9 320.75 544.9C330.81 544.9 350.97 544.9 361.03 544.9Z" id="m1tBImmfHX"></path><path d="M380.45 523.63C360.81 555.11 348.54 574.79 343.63 582.66C342.31 584.78 339.21 584.73 337.96 582.57C336.32 579.73 332.22 572.64 325.65 561.3" id="h3Ysx9wrU"></path><path d="M549.11 595.41L398.42 595.41" id="d11hqCPdib"></path><path d="M523.08 575.04L398.42 575.04" id="clrPx9zvQ"></path><path d="M558.7 553.92L398.42 553.92" id="bvkeaV2U5"></path></defs><g><g><g><g><use xlink:href="#b2jqnBMC18" opacity="1" fill-opacity="0" stroke="#000000" stroke-width="10" stroke-opacity="1"></use></g></g><g><use xlink:href="#iaRB82Mkp" opacity="1" fill="#ffffff" fill-opacity="1"></use><g><use xlink:href="#iaRB82Mkp" opacity="1" fill-opacity="0" stroke="#000000" stroke-width="10" stroke-opacity="1"></use></g></g><g><use xlink:href="#e30Wupco5" opacity="1" fill="#ffffff" fill-opacity="1"></use><g><use xlink:href="#e30Wupco5" opacity="1" fill-opacity="0" stroke="#000000" stroke-width="10" stroke-opacity="1"></use></g></g><g><g><use xlink:href="#md0x8yXEf" opacity="1" fill-opacity="0" stroke="#000000" stroke-width="10" stroke-opacity="1"></use></g></g><g><g><use xlink:href="#auM4pako6" opacity="1" fill-opacity="0" stroke="#000000" stroke-width="10" stroke-opacity="1"></use></g></g><g><use xlink:href="#d21503XIh3" opacity="1" fill="#ffffff" fill-opacity="1"></use><g><use xlink:href="#d21503XIh3" opacity="1" fill-opacity="0" stroke="#000000" stroke-width="10" stroke-opacity="1"></use></g></g><g><g><use xlink:href="#g2LcN8vEoa" opacity="1" fill-opacity="0" stroke="#031805" stroke-width="10" stroke-opacity="1"></use></g></g><g><g><use xlink:href="#baTEoDD2vT" opacity="1" fill-opacity="0" stroke="#000000" stroke-width="14" stroke-opacity="1"></use></g></g><g><g><use xlink:href="#l6RCwG4vj" opacity="1" fill-opacity="0" stroke="#000000" stroke-width="8" stroke-opacity="1"></use></g></g><g><g><use xlink:href="#dc71tBwO8" opacity="1" fill-opacity="0" stroke="#000000" stroke-width="10" stroke-opacity="1"></use></g></g><g><g><use xlink:href="#a1NpZr7ZH" opacity="1" fill-opacity="0" stroke="#000000" stroke-width="8" stroke-opacity="1"></use></g></g><g><g><use xlink:href="#b1rShrCVf2" opacity="1" fill-opacity="0" stroke="#000000" stroke-width="8" stroke-opacity="1"></use></g></g><g><g><use xlink:href="#a2cs1XdF53" opacity="1" fill-opacity="0" stroke="#000000" stroke-width="8" stroke-opacity="1"></use></g></g><g><g><use xlink:href="#c3nrFRKfc" opacity="1" fill-opacity="0" stroke="#000000" stroke-width="8" stroke-opacity="1"></use></g></g><g><g><use xlink:href="#dFehelPjq" opacity="1" fill-opacity="0" stroke="#000000" stroke-width="8" stroke-opacity="1"></use></g></g><g><g><use xlink:href="#a5pnUqkS1" opacity="1" fill-opacity="0" stroke="#000000" stroke-width="10" stroke-opacity="1"></use></g></g><g><g><use xlink:href="#d2BUNuaGR" opacity="1" fill-opacity="0" stroke="#000000" stroke-width="8" stroke-opacity="1"></use></g></g><g><g><use xlink:href="#anFgrjzCd" opacity="1" fill-opacity="0" stroke="#000000" stroke-width="8" stroke-opacity="1"></use></g></g><g><g><use xlink:href="#m1tBImmfHX" opacity="1" fill-opacity="0" stroke="#000000" stroke-width="8" stroke-opacity="1"></use></g></g><g><g><use xlink:href="#h3Ysx9wrU" opacity="1" fill-opacity="0" stroke="#000000" stroke-width="10" stroke-opacity="1"></use></g></g><g><g><use xlink:href="#d11hqCPdib" opacity="1" fill-opacity="0" stroke="#000000" stroke-width="8" stroke-opacity="1"></use></g></g><g><g><use xlink:href="#clrPx9zvQ" opacity="1" fill-opacity="0" stroke="#000000" stroke-width="8" stroke-opacity="1"></use></g></g><g><g><use xlink:href="#bvkeaV2U5" opacity="1" fill-opacity="0" stroke="#000000" stroke-width="8" stroke-opacity="1"></use></g></g></g></g></svg>